<svg id="Layer_1" data-name="Layer 1" xmlns="http://www.w3.org/2000/svg" viewBox="0 0 19.56 18"><defs><style>.cls-1{fill:#39e239;}</style></defs><g id="icon-set最新整理"><g id="images_h5_icon-set_index-theme-icon" data-name="images/h5/icon-set/index-theme-icon"><g id="header-service-icon"><path id="Combined-Shape" class="cls-1" d="M16.88,0a2.69,2.69,0,0,1,2.68,2.69v8.68a2.69,2.69,0,0,1-2.68,2.69H8.34L2.68,18V14.06A2.69,2.69,0,0,1,0,11.37V2.69A2.7,2.7,0,0,1,2.69,0Zm1.54,11.37V2.69a1.54,1.54,0,0,0-1.54-1.54H2.69A1.54,1.54,0,0,0,1.15,2.69v8.68a1.54,1.54,0,0,0,1.54,1.54H3.83v2.9L8,12.91h8.9A1.54,1.54,0,0,0,18.42,11.37ZM5.24,4.05h9.09V5.2H5.24Zm0,2.45h9.09V7.64H5.24Zm0,2.44h9.09v1.15H5.24Z"/></g></g></g></svg>