<?xml version="1.0" encoding="utf-8"?>
<!-- Generator: Adobe Illustrator 25.4.1, SVG Export Plug-In . SVG Version: 6.00 Build 0)  -->
<svg version="1.1" id="Layer_1" xmlns="http://www.w3.org/2000/svg" xmlns:xlink="http://www.w3.org/1999/xlink" x="0px" y="0px"
	 viewBox="0 0 16 18" style="enable-background:new 0 0 16 18;" xml:space="preserve">
<style type="text/css">
	.st0{fill:#14805E;}
</style>
<g id="icon-set最新整理">
	<g id="images_x2F_h5_x2F_icon-set_x2F_index-theme-icon" transform="translate(-39.000000, -211.000000)">
		<g id="header-appdownload-icon" transform="translate(39.000000, 211.000000)">
			<path id="Path" class="st0" d="M13.2,17.8H2.6c-1.4,0-2.6-1.2-2.6-2.6v-1V2.6C0,1.2,1.2,0,2.6,0h2.8C5.7,0,6,0.2,6,0.5
				c0,0,0,0,0,0.1c0,0.3-0.2,0.6-0.6,0.6l0,0H2.6c-0.8,0-1.4,0.6-1.4,1.4l0,0v12.6c0,0.8,0.6,1.4,1.4,1.4l0,0h10.6
				c0.8,0,1.4-0.6,1.4-1.4V2.6c0-0.8-0.6-1.4-1.4-1.4h-2.8c-0.4,0-0.6-0.3-0.6-0.6l0,0C9.8,0.3,10,0,10.4,0h2.8
				c1.4,0,2.6,1.2,2.6,2.6v12.6C15.7,16.5,14.6,17.8,13.2,17.8z"/>
			<path id="Path_00000000906351487833221770000006891608322800622223_" class="st0" d="M15.1,12H0.6c-0.3,0-0.6-0.3-0.5-0.7
				c0-0.3,0.2-0.5,0.5-0.5h14.6c0.3,0,0.6,0.3,0.5,0.7C15.6,11.8,15.4,12,15.1,12z"/>
			<circle id="Oval" class="st0" cx="7.9" cy="14.3" r="1"/>
			<path id="Path_00000147906149531551093560000014942467038282555815_" class="st0" d="M7.9,7.7c-0.3,0-0.6-0.3-0.6-0.6V0.6
				C7.3,0.3,7.5,0,7.9,0c0.3,0,0.6,0.3,0.6,0.6v6.5C8.4,7.5,8.2,7.7,7.9,7.7z"/>
			<path id="Path_00000018926618642142169930000010129364657615096978_" class="st0" d="M7.9,7.7c-0.1,0-0.2,0-0.3-0.1L5.3,5.9
				C5.1,5.7,5,5.3,5.2,5.1C5.4,4.9,5.8,4.8,6,5l2.2,1.6c0.3,0.2,0.3,0.6,0.1,0.8C8.2,7.6,8,7.7,7.9,7.7z"/>
			<path id="Path_00000111884088595840078950000009195793530377913023_" class="st0" d="M7.9,7.7c-0.2,0-0.4-0.1-0.5-0.2
				C7.2,7.2,7.2,6.8,7.5,6.6l0,0L9.7,5c0.3-0.2,0.6-0.1,0.8,0.1c0.2,0.3,0.1,0.6-0.1,0.8L8.2,7.6C8.1,7.6,8,7.7,7.9,7.7z"/>
		</g>
	</g>
</g>
</svg>
