<?xml version="1.0" encoding="utf-8"?>
<!-- Generator: Adobe Illustrator 25.4.1, SVG Export Plug-In . SVG Version: 6.00 Build 0)  -->
<svg version="1.1" id="Layer_1" xmlns="http://www.w3.org/2000/svg" xmlns:xlink="http://www.w3.org/1999/xlink" x="0px" y="0px"
	 viewBox="0 0 120 120" style="enable-background:new 0 0 120 120;" xml:space="preserve">
<style type="text/css">
	.st0{fill:#FFDF1A;}
</style>
<g id="Layer_1_00000015332260960430279620000009158016958957182358_">
	<path class="st0" d="M20.4,84.4c0.4-0.9,1-1.6,1.8-2.2c-12.3-20.9-5.3-47.8,15.6-60c6.7-4,14.4-6,22.2-6c1.1,0,2.1,0,3.2,0.1l2.5-3
		c-1.9-0.2-3.8-0.3-5.7-0.3C34,12.9,12.9,34,12.9,60c0,8.9,2.5,17.5,7.2,25C20.2,84.8,20.3,84.6,20.4,84.4z"/>
	<path class="st0" d="M100,35.2c-0.1,0.5-0.3,0.9-0.5,1.4c-0.3,0.7-0.8,1.4-1.3,2c11.9,21.1,4.4,47.9-16.7,59.7
		c-6.6,3.7-14,5.6-21.5,5.6c-1.4,0-2.8-0.1-4.2-0.2l-2.4,2.9c25.7,3.7,49.6-14.2,53.2-40C108.2,55.7,105.8,44.6,100,35.2z"/>
	<path class="st0" d="M83.3,63.8H68.2c-2.1-0.1-3.7-1.9-3.6-4V38.9c0-0.8-0.7-1.5-1.5-1.5l0,0h-4.6c-1.4,0-2.7-0.9-3.2-2.2
		c-0.7-1.5-0.5-3.3,0.5-4.5l16.9-20.3c1.6-1.8,4.2-1.9,6-0.4c0.1,0.1,0.3,0.2,0.4,0.4l16.9,20.3c1,1.3,1.2,3.1,0.5,4.5
		c-0.5,1.3-1.8,2.1-3.2,2.1h-4.7c-0.8,0-1.5,0.7-1.5,1.5v20.9C87.1,61.9,85.5,63.7,83.3,63.8L83.3,63.8z M75.8,11.4
		c-0.5,0-0.9,0.2-1.2,0.6L57.8,32.3c-0.4,0.5-0.5,1.2-0.2,1.8c0.1,0.4,0.5,0.6,0.9,0.7h4.7c2.3,0,4.1,1.8,4.2,4.1v21
		c0,0.8,0.5,1.4,1,1.4h15.1c0.6,0,1-0.7,1-1.4v-21c0-2.3,1.8-4.1,4.1-4.1c0,0,0,0,0,0h4.7c0.4,0,0.7-0.3,0.8-0.7
		c0.3-0.6,0.2-1.3-0.2-1.8L77,12C76.7,11.6,76.2,11.4,75.8,11.4z"/>
	<path class="st0" d="M51.4,57.1H35.8c-1.4,0.1-2.5,1.4-2.4,2.8v21.7c0,1.6-1.3,2.9-2.9,2.9h-4.8c-2.1,0-3.2,3-1.7,4.8l15.7,18.9
		c1.7,2.2,4.8,2.6,7,0.9c0.3-0.3,0.7-0.6,0.9-0.9l15.7-18.8c1.5-1.8,0.4-4.8-1.7-4.8h-4.8c-1.6,0-2.9-1.3-2.9-2.9V59.9
		C53.9,58.4,52.8,57.2,51.4,57.1z"/>
</g>
</svg>
