<?xml version="1.0" encoding="utf-8"?>
<!-- Generator: Adobe Illustrator 25.4.1, SVG Export Plug-In . SVG Version: 6.00 Build 0)  -->
<svg version="1.1" id="Layer_1" xmlns="http://www.w3.org/2000/svg" xmlns:xlink="http://www.w3.org/1999/xlink" x="0px" y="0px"
	 viewBox="0 0 120 120" style="enable-background:new 0 0 120 120;" xml:space="preserve">
<style type="text/css">
	.st0{fill:#FFDF1A;}
</style>
<g id="Layer_1_00000005964952156305239780000001464913870662472362_">
	<path class="st0" d="M16.3,49.3c5.9-24.1,30.3-38.9,54.4-33C90.8,21.2,105,39.3,105,60c0,0.4,0,0.8,0,1.3c0.6,1.2,1.2,2.4,1.7,3.6
		c0.3,0.7,0.5,1.4,0.8,2.1c3.6-26.3-14.7-50.5-41-54.1S16,27.6,12.4,53.9c0,0,0,0,0,0C13.5,52.2,14.8,50.7,16.3,49.3z"/>
	<path class="st0" d="M51.3,104.1c-9.3-1.8-17.8-6.6-24.2-13.5c-2-0.5-3.9-1.2-5.6-2.1c8.3,11.2,21,18.2,34.9,19.3
		C54.5,106.8,52.8,105.5,51.3,104.1z"/>
	<path class="st0" d="M29.9,59.4c-0.1-0.4-0.5-0.6-0.9-0.5c-0.1,0-0.2,0.1-0.3,0.2c-0.4,0.3-0.7,0.7-1.1,1c-0.2,0.2-0.3,0.5-0.2,0.8
		c0.1,0.3,0.4,0.5,0.7,0.5c0.2,0,0.4-0.1,0.5-0.2l1.1-1C29.9,59.9,29.9,59.6,29.9,59.4z"/>
	<path class="st0" d="M25.5,62.1l-1,1.1c-0.3,0.3-0.3,0.8,0,1.1c0.2,0.2,0.5,0.2,0.7,0.2c0.1,0,0.2-0.1,0.3-0.2l1-1.1
		c0.2-0.3,0.2-0.7-0.1-1C26.2,61.9,25.7,61.9,25.5,62.1z"/>
	<path class="st0" d="M22.4,65.4l-1,1.1c-0.2,0.2-0.2,0.5-0.1,0.7c0.1,0.4,0.6,0.6,0.9,0.4c0.1,0,0.2-0.1,0.3-0.2
		c0.3-0.4,0.6-0.7,1-1.1c0.2-0.3,0.2-0.7,0-1C23.1,65.1,22.7,65.1,22.4,65.4L22.4,65.4z"/>
	<path class="st0" d="M31.1,58.2c0.3,0.1,0.5,0,0.7-0.2l1.1-1c0.3-0.3,0.3-0.7,0-1c-0.3-0.3-0.7-0.3-1-0.1c-0.4,0.3-0.8,0.7-1.1,1
		c-0.3,0.3-0.3,0.7-0.1,1C30.9,58.1,31,58.2,31.1,58.2L31.1,58.2z"/>
	<path class="st0" d="M37.9,52.5c0.2,0.1,0.5,0.1,0.7-0.1l1.2-0.8c0.3-0.2,0.4-0.7,0.2-1c-0.1-0.1-0.2-0.2-0.3-0.2
		c-0.2-0.1-0.5-0.1-0.7,0.1l-1.2,0.9c-0.2,0.2-0.3,0.4-0.3,0.7C37.5,52.2,37.7,52.4,37.9,52.5z"/>
	<path class="st0" d="M34.5,55.3c0.2,0.1,0.5,0,0.7-0.1l1.2-0.9c0.3-0.3,0.3-0.7,0.1-1c-0.3-0.3-0.7-0.3-1-0.1l0,0L34.2,54
		c-0.3,0.3-0.3,0.7-0.1,1C34.2,55.1,34.3,55.2,34.5,55.3L34.5,55.3z"/>
	<path class="st0" d="M39.9,70.2l-1,1.1c-0.2,0.4-0.1,0.8,0.3,1c0.2,0.1,0.5,0.1,0.7,0c0.3-0.3,0.7-0.7,1-1c0-0.2,0.1-0.5,0.2-0.8
		c0-0.1-0.1-0.2-0.2-0.3C40.6,70,40.2,70,39.9,70.2z"/>
	<path class="st0" d="M30.2,79.3L29,80.2c-0.2,0.2-0.3,0.4-0.3,0.7c0.1,0.4,0.4,0.7,0.8,0.6c0,0,0,0,0,0c0.1,0,0.3-0.1,0.4-0.2
		l1.2-0.9c0.3-0.3,0.3-0.7,0.1-1C30.9,79.1,30.5,79,30.2,79.3z"/>
	<path class="st0" d="M34.3,76.2c-0.3-0.1-0.5,0-0.7,0.2c-0.4,0.3-0.7,0.7-1.1,1c-0.3,0.3-0.3,0.8-0.1,1.1c0.3,0.3,0.8,0.3,1.1,0.1
		l1.1-1c0.2-0.2,0.3-0.4,0.2-0.7C34.7,76.5,34.5,76.3,34.3,76.2z"/>
	<path class="st0" d="M27.4,81.9c-0.2-0.1-0.5-0.1-0.7,0.1l-1.2,0.9c-0.2,0.2-0.3,0.4-0.3,0.7c0.1,0.4,0.4,0.7,0.8,0.7
		c0.1,0,0.3-0.1,0.4-0.1l1.2-0.9c0.3-0.3,0.4-0.7,0.1-1.1C27.6,82,27.5,82,27.4,81.9z"/>
	<path class="st0" d="M36.8,73.3l-1.1,1c-0.3,0.3-0.3,0.8,0,1c0,0,0,0,0,0c0.3,0.3,0.8,0.3,1.1,0l1.1-1c0.2-0.4,0.1-0.8-0.3-1
		C37.3,73.3,37,73.3,36.8,73.3L36.8,73.3z"/>
	<path class="st0" d="M40.9,71.3c-0.3,0.4-0.7,0.7-1,1c-0.3,0.3-0.8,0.3-1,0c-0.3-0.3-0.3-0.7,0-1l1-1.1c0.3-0.3,0.7-0.3,1,0
		c0.1,0.1,0.1,0.2,0.2,0.3c0.7-3.3,1.9-6.5,3.5-9.4c-2.8,3.1-5.7,6.2-8.8,9.3c-4.9,4.9-10,9.5-15.1,13.8c0.5,0.3,1,0.7,1.5,1
		l0.8-0.6c0.3-0.2,0.8-0.1,1,0.2c0.2,0.3,0.1,0.8-0.2,1L23.6,86c5.6,2.6,12.1,2.6,17.7,0C40,81.2,39.8,76.1,40.9,71.3L40.9,71.3z
		 M27.6,83.2c-0.4,0.3-0.8,0.6-1.2,0.9c-0.3,0.2-0.8,0.1-1-0.2c-0.1-0.1-0.1-0.2-0.1-0.3c0-0.3,0.1-0.5,0.3-0.7l1.2-0.9
		c0.3-0.2,0.8-0.2,1,0.1C28,82.5,27.9,82.9,27.6,83.2L27.6,83.2z M31.1,80.4l-1.2,1c-0.3,0.2-0.7,0.2-1-0.1
		c-0.1-0.1-0.1-0.2-0.2-0.4c0-0.3,0.1-0.5,0.3-0.7c0.4-0.3,0.8-0.6,1.1-0.9c0.3-0.3,0.8-0.2,1,0.1S31.5,80.2,31.1,80.4L31.1,80.4z
		 M34.5,77.5l-1.1,1c-0.3,0.3-0.8,0.2-1.1-0.1c-0.3-0.3-0.2-0.8,0.1-1.1c0.4-0.3,0.8-0.7,1.1-1c0.2-0.2,0.5-0.2,0.7-0.2
		c0.2,0.1,0.4,0.3,0.5,0.6C34.8,77,34.7,77.3,34.5,77.5z M37.8,74.4l-1.1,1c-0.4,0.2-0.8,0.1-1-0.3c-0.1-0.2-0.1-0.5,0-0.7l1.1-1.1
		c0.3-0.3,0.8-0.3,1,0C38.1,73.6,38.1,74.1,37.8,74.4C37.9,74.3,37.8,74.4,37.8,74.4z"/>
	<path class="st0" d="M44.6,50.2c-0.5-0.3-1-0.7-1.5-1l-0.9,0.6c-0.4,0.2-0.8,0-1-0.4c0,0,0,0,0,0c-0.1-0.3,0-0.6,0.2-0.8l0.2-0.2
		c-10.4-5-22.8-0.6-27.7,9.8c-2.7,5.7-2.7,12.2,0,17.9l0.1-0.2c0.2-0.3,0.7-0.4,1-0.2c0.3,0.2,0.4,0.7,0.2,1l0,0
		c-0.2,0.3-0.4,0.6-0.6,0.9c0.3,0.5,0.6,1,1,1.5c4.3-5.1,9-10.1,13.9-15S39.5,54.5,44.6,50.2z M37.8,51.2l1.2-0.9
		c0.2-0.2,0.5-0.2,0.7-0.1c0.4,0.1,0.6,0.6,0.5,0.9c0,0,0,0,0,0.1c-0.1,0.1-0.2,0.3-0.3,0.3l-1.2,0.8c-0.3,0.3-0.8,0.2-1-0.1
		c-0.1-0.1-0.1-0.2-0.2-0.4C37.5,51.7,37.6,51.4,37.8,51.2L37.8,51.2z M34.2,54l1.2-0.9c0.3-0.2,0.7-0.2,1,0.1
		c0.2,0.3,0.2,0.7-0.1,1l0,0l-1.2,0.9c-0.3,0.2-0.7,0.2-1-0.1c-0.1-0.1-0.1-0.2-0.2-0.3C33.9,54.4,34,54.2,34.2,54z M30.9,56.9
		c0.4-0.3,0.8-0.7,1.1-1c0.3-0.2,0.8-0.2,1,0.1c0.3,0.3,0.3,0.8,0,1.1l-1.1,1c-0.2,0.2-0.5,0.2-0.7,0.2c-0.4-0.1-0.6-0.5-0.5-0.9
		C30.7,57.2,30.8,57,30.9,56.9L30.9,56.9z M17.9,73.2L17,74.4c-0.2,0.2-0.4,0.3-0.7,0.3c-0.4,0-0.7-0.4-0.7-0.8
		c0-0.1,0.1-0.3,0.1-0.4l0.9-1.2c0.2-0.2,0.4-0.3,0.7-0.3c0.3,0,0.5,0.2,0.6,0.4C18.1,72.7,18,73,17.9,73.2L17.9,73.2z M20.6,69.7
		l-0.9,1.1c-0.3,0.3-0.7,0.4-1,0.1c-0.2-0.2-0.3-0.4-0.3-0.7c0-0.1,0.1-0.3,0.1-0.4c0.3-0.4,0.6-0.8,1-1.2c0.2-0.3,0.7-0.4,1-0.1
		c0.1,0.1,0.2,0.2,0.2,0.3C20.8,69.2,20.8,69.5,20.6,69.7L20.6,69.7z M23.5,66.4c-0.3,0.4-0.6,0.7-1,1.1c-0.3,0.3-0.8,0.3-1.1,0
		c-0.1-0.1-0.2-0.2-0.2-0.3c-0.1-0.3,0-0.5,0.1-0.7c0.3-0.4,0.7-0.7,1-1.1c0.3-0.3,0.7-0.3,1-0.1C23.7,65.6,23.7,66,23.5,66.4
		L23.5,66.4L23.5,66.4z M26.5,63.2l-1,1.1c-0.3,0.3-0.7,0.3-1,0c-0.3-0.3-0.3-0.8,0-1c0,0,0,0,0,0l1-1.1c0.3-0.3,0.8-0.2,1,0.1
		C26.7,62.5,26.7,62.8,26.5,63.2L26.5,63.2z M28.1,61.3c-0.3,0-0.6-0.2-0.7-0.5c-0.1-0.3,0-0.6,0.2-0.8c0.4-0.3,0.7-0.7,1.1-1
		c0.2-0.2,0.5-0.2,0.7-0.2c0.4,0.1,0.6,0.5,0.5,0.9c0,0,0,0,0,0c0,0.1-0.1,0.2-0.2,0.3l-1.1,1C28.4,61.2,28.3,61.3,28.1,61.3
		L28.1,61.3z"/>
	<path class="st0" d="M48.8,54.1c-0.3-0.3-0.6-0.7-0.9-1L18.5,82.4c0.3,0.3,0.7,0.6,1,0.9c5.2-4.3,10.3-9,15.2-14
		S44.5,59.3,48.8,54.1z"/>
	<path class="st0" d="M45.8,51.2c-5.2,4.3-10.3,9-15.3,14s-9.7,10.1-14,15.2c0.3,0.3,0.6,0.7,0.9,1L46.9,52
		C46.5,51.7,46.2,51.5,45.8,51.2z"/>
	<path class="st0" d="M83.4,44.9c0.6-1.6,1-3.3,1.2-5c-5.3-0.8-10.3-3.3-14-7.2c-3.9-3.7-6.4-8.7-7.2-14
		c-9.3,0.8-16.7,8.2-17.6,17.5c5.3,0.8,10.3,3.3,14,7.2c0.8,0.8,1.5,1.7,2.2,2.5C68.9,43.4,76.4,43,83.4,44.9L83.4,44.9z"/>
	<path class="st0" d="M84.7,37.6C84.4,27.3,76.1,19,65.8,18.8c0.7,4.7,3,9.1,6.5,12.4C75.6,34.5,80,36.8,84.7,37.6z"/>
	<path class="st0" d="M58.2,45.2c-3.3-3.4-7.7-5.7-12.4-6.5c0.1,5,2.2,9.7,5.7,13.1c0.1,0.1,0.2,0.2,0.4,0.3
		c2.4-2.1,5.1-3.8,7.9-5.2C59.3,46.4,58.7,45.8,58.2,45.2z"/>
	<path class="st0" d="M62.6,48.8c-16.1,6.5-23.9,24.8-17.4,40.9s24.8,23.9,40.9,17.4s23.9-24.8,17.4-40.9
		c-4.8-11.9-16.3-19.7-29.1-19.7C70.3,46.5,66.3,47.3,62.6,48.8z M51,90.7c-1.5-0.9-2.9-2-4.1-3.3c-1.9-5.3-2.2-10.9-1-16.4
		c0.6-1.2,1.2-2.3,2-3.3c0.2-0.3,0.4-0.7,0.7-1l7,4.2V71c0,3.8,0.4,7.5,1.1,11.2l0,0l-5.4,8.6C51.2,90.7,51.1,90.6,51,90.7L51,90.7z
		 M71.9,105.1c1.2,0.6,2.5,1.1,3.7,1.6c-5.5,0.2-11-1.1-15.8-3.8l11.8,2.1L71.9,105.1z M71.8,103L58,100.5c-1.7-2-3.1-4.1-4.4-6.3
		c-0.3-0.6-0.7-1.1-1-1.7l5.5-8.5l0.4,0.1c3.4,0.9,6.9,1.6,10.4,2.1c0.2,0,0.4,0.1,0.5,0.1l6.5,11.3c-1.1,1.6-2.3,3.2-3.4,4.7
		C72.2,102.4,72,102.7,71.8,103L71.8,103z M95,98.1c-1.1,1.1-2.3,2.1-3.5,3c-0.2-1.6-0.6-3.2-1.1-4.8l7-13c1.9-0.8,3.8-1.9,5.5-3.1
		c0.2-0.1,0.4-0.3,0.6-0.5C103,86.7,99.9,93.2,95,98.1L95,98.1z M94.7,81.3l0.8,1.5l-6.7,12.5h-0.1c-3.6,0.7-7.3,1-11,1l-6.8-11.5
		C72,82.9,73,81,74,79c0.7-1.3,1.4-2.6,2.1-4L90,73.6C91.7,76.1,93.3,78.7,94.7,81.3L94.7,81.3z M91.8,66.5
		c-0.7,1.7-1.4,3.4-2.1,5.2l-13.5,1.4c-0.2-0.2-0.3-0.4-0.5-0.6L70.9,67l0,0l-1.9-1.9l3.8-11.3c0.3-0.1,0.5-0.1,0.8-0.2
		c2-0.2,4.1-0.4,6.2-0.6c1.3-0.1,2.5-0.1,3.8,0l9.3,10.5C92.5,64.5,92.2,65.5,91.8,66.5z M95,57c2.5,2.5,4.5,5.4,6,8.6
		c-1.7-1.2-3.6-2.2-5.6-3l-0.9-0.3L85.3,52c0.1-0.4,0.1-0.9,0.1-1.3C89,52.1,92.2,54.3,95,57z M65,50.1C65,50.1,65,50.1,65,50.1
		c2.2,0.8,4.1,1.8,5.9,3.1l-3.6,10.6l0,0c-0.7,0.3-1.4,0.6-2.2,0.9c-2.9,1.3-5.8,2.8-8.5,4.6l-6.9-4.1c0-0.2,0-0.4,0.1-0.6
		c0.5-1.2,0.9-2.5,1.5-3.7c0.4-0.9,0.9-1.8,1.4-2.7c0.3-0.4,0.7-0.7,1-1.1C56.9,53.8,60.8,51.4,65,50.1L65,50.1z"/>
</g>
</svg>
