<?xml version="1.0" encoding="utf-8"?>
<!-- Generator: Adobe Illustrator 25.4.1, SVG Export Plug-In . SVG Version: 6.00 Build 0)  -->
<svg version="1.1" id="Layer_1" xmlns="http://www.w3.org/2000/svg" xmlns:xlink="http://www.w3.org/1999/xlink" x="0px" y="0px"
	 viewBox="0 0 20 15" style="enable-background:new 0 0 20 15;" xml:space="preserve">
<style type="text/css">
	.st0{fill:#14805E;}
</style>
<g id="icon-set最新整理">
	<g id="images_x2F_h5_x2F_icon-set_x2F_index-theme-icon" transform="translate(-35.000000, -152.000000)">
		<g id="index-announcement-icon" transform="translate(35.000000, 152.000000)">
			<path id="Path" class="st0" d="M18.9,6.8h-1.7c-0.3,0-0.6,0.3-0.6,0.6c0,0.3,0.3,0.6,0.6,0.6h1.7c0.3,0,0.6-0.3,0.6-0.6
				C19.4,7.1,19.2,6.8,18.9,6.8z"/>
			<path id="Path_00000093880913263456989770000013820491416065375387_" class="st0" d="M18.1,10.4L17,9.3c-0.2-0.2-0.6-0.2-0.8,0
				c-0.2,0.2-0.2,0.6,0,0.8l1.1,1.1c0.2,0.2,0.6,0.2,0.8,0C18.4,11,18.4,10.6,18.1,10.4z"/>
			<path id="Path_00000052093979758817945190000011897811456800527749_" class="st0" d="M18.1,3.6c-0.2-0.2-0.6-0.2-0.8,0l-1.1,1.1
				c-0.2,0.2-0.2,0.6,0,0.8c0.2,0.2,0.6,0.2,0.8,0l1.1-1.1C18.4,4.2,18.4,3.8,18.1,3.6z"/>
			<path id="Shape" class="st0" d="M13.2,0c-0.9,0-1.6,0.6-1.7,1.5L11,2c-0.9,0.9-2.2,1.4-3.6,1.4H4c-0.7,0-1.4,0.5-1.6,1.1H2.3
				C1,4.6,0,5.6,0,6.8s1,2.3,2.3,2.3h0.1c0.2,0.5,0.6,0.9,1,1v2.9c0,0.9,0.8,1.7,1.7,1.7c0.9,0,1.7-0.8,1.7-1.7v-2.8h0.6
				c1.3,0,2.7,0.5,3.6,1.4l0.5,0.5c0.1,0.8,0.8,1.5,1.7,1.5c0.9,0,1.7-0.8,1.7-1.7V1.7C14.9,0.8,14.1,0,13.2,0z M2.3,8
				C1.7,8,1.1,7.5,1.1,6.8s0.5-1.1,1.1-1.1V8z M5.7,13.1c0,0.3-0.3,0.6-0.6,0.6c-0.3,0-0.6-0.3-0.6-0.6v-2.8h1.1V13.1z M6.8,9.1H4
				c-0.3,0-0.6-0.3-0.6-0.6V5.1c0-0.3,0.3-0.6,0.6-0.6h2.8V9.1z M11.5,10.6c-1-0.8-2.2-1.4-3.5-1.5l0-4.6c1.3-0.1,2.5-0.6,3.5-1.5
				V10.6z M13.8,12c0,0.3-0.3,0.6-0.6,0.6h0c-0.3,0-0.6-0.3-0.6-0.6V1.7c0-0.3,0.3-0.6,0.6-0.6c0.3,0,0.6,0.3,0.6,0.6V12z"/>
		</g>
	</g>
</g>
</svg>
