<?xml version="1.0" encoding="utf-8"?>
<!-- Generator: Adobe Illustrator 25.4.1, SVG Export Plug-In . SVG Version: 6.00 Build 0)  -->
<svg version="1.1" id="Layer_1" xmlns="http://www.w3.org/2000/svg" xmlns:xlink="http://www.w3.org/1999/xlink" x="0px" y="0px"
	 viewBox="0 0 20 18" style="enable-background:new 0 0 20 18;" xml:space="preserve">
<style type="text/css">
	.st0{fill:#14805E;}
</style>
<g id="icon-set最新整理">
	<g id="images_x2F_h5_x2F_icon-set_x2F_index-theme-icon" transform="translate(-191.000000, -210.000000)">
		<g id="header-service-icon" transform="translate(191.000000, 210.000000)">
			<path id="Combined-Shape" class="st0" d="M16.9,0c1.5,0,2.7,1.2,2.7,2.7v8.7c0,1.5-1.2,2.7-2.7,2.7H8.3L2.7,18v-3.9
				c-1.5,0-2.7-1.2-2.7-2.7V2.7C0,1.2,1.2,0,2.7,0H16.9z M18.4,11.4V2.7c0-0.9-0.7-1.5-1.5-1.5H2.7c-0.9,0-1.5,0.7-1.5,1.5v8.7
				c0,0.9,0.7,1.5,1.5,1.5h1.1v2.9L8,12.9h8.9C17.7,12.9,18.4,12.2,18.4,11.4z M5.2,4.1h9.1v1.1H5.2V4.1z M5.2,6.5h9.1v1.1H5.2V6.5z
				 M5.2,8.9h9.1v1.1H5.2V8.9z"/>
		</g>
	</g>
</g>
</svg>
